ffmpeg version 4.2.7-0ubuntu0.1 Copyright (c) 2000-2022 the FFmpeg developers
  built with gcc 9 (Ubuntu 9.4.0-1ubuntu1~20.04.1)
  configuration: --prefix=/usr --extra-version=0ubuntu0.1 --toolchain=hardened --libdir=/usr/lib/x86_64-linux-gnu --incdir=/usr/include/x86_64-linux-gnu --arch=amd64 --enable-gpl --disable-stripping --enable-avresample --disable-filter=resample --enable-avisynth --enable-gnutls --enable-ladspa --enable-libaom --enable-libass --enable-libbluray --enable-libbs2b --enable-libcaca --enable-libcdio --enable-libcodec2 --enable-libflite --enable-libfontconfig --enable-libfreetype --enable-libfribidi --enable-libgme --enable-libgsm --enable-libjack --enable-libmp3lame --enable-libmysofa --enable-libopenjpeg --enable-libopenmpt --enable-libopus --enable-libpulse --enable-librsvg --enable-librubberband --enable-libshine --enable-libsnappy --enable-libsoxr --enable-libspeex --enable-libssh --enable-libtheora --enable-libtwolame --enable-libvidstab --enable-libvorbis --enable-libvpx --enable-libwavpack --enable-libwebp --enable-libx265 --enable-libxml2 --enable-libxvid --enable-libzmq --enable-libzvbi --enable-lv2 --enable-omx --enable-openal --enable-opencl --enable-opengl --enable-sdl2 --enable-libdc1394 --enable-libdrm --enable-libiec61883 --enable-nvenc --enable-chromaprint --enable-frei0r --enable-libx264 --enable-shared
  libavutil      56. 31.100 / 56. 31.100
  libavcodec     58. 54.100 / 58. 54.100
  libavformat    58. 29.100 / 58. 29.100
  libavdevice    58.  8.100 / 58.  8.100
  libavfilter     7. 57.100 /  7. 57.100
  libavresample   4.  0.  0 /  4.  0.  0
  libswscale      5.  5.100 /  5.  5.100
  libswresample   3.  5.100 /  3.  5.100
  libpostproc    55.  5.100 / 55.  5.100
Routing option strict to both codec and muxer layer
[h264 @ 0x56286a2bce00] Reinit context to 1920x1088, pix_fmt: yuv420p
Input #0, mov,mp4,m4a,3gp,3g2,mj2, from '/var/www/html/project/media/video/original/lv_0_20240322175202.mp4':
  Metadata:
    major_brand     : isom
    minor_version   : 512
    compatible_brands: isomiso2avc1mp41
    Hw              : 1
    LvMetaInfo      : {"data":{"ad_type":"","adsTemplateId":"","appVersion":"11.4.0","businessComponentId":"","businessTemplateId":"","capabilityName":"","ccTtVid":"","commercial_params":{"commercial_audio_music_cnt":0,"commercial_sticker_cnt":0,"commercial_text_font_cnt":0,"c
    aigc_info       : {"aigc_label_type":0,"source_info":""}
    bitrate         : 12000000
    maxrate         : 30000000
    te_is_reencode  : 1
    encoder         : bytevehwavc
  Duration: 00:01:21.15, start: 0.000000, bitrate: 9705 kb/s
    Stream #0:0(und): Video: h264 (High), 1 reference frame (avc1 / 0x31637661), yuv420p(tv, bt709, left), 1920x1080 (1920x1088), 9509 kb/s, 30 fps, 30 tbr, 1000k tbn, 2000k tbc (default)
    Metadata:
      handler_name    : VideoHandler
    Stream #0:1(und): Audio: aac (LC) (mp4a / 0x6134706D), 44100 Hz, stereo, fltp, 197 kb/s (default)
    Metadata:
      handler_name    : SoundHandler
Input #1, png_pipe, from '/var/www/html/project/static/images/templates/logo.png':
  Duration: N/A, bitrate: N/A
    Stream #1:0: Video: png, 1 reference frame, rgba(pc), 1920x1080 [SAR 2835:2835 DAR 16:9], 25 tbr, 25 tbn, 25 tbc
[Parsed_scale_0 @ 0x56286a2fb300] w:1280 h:720 flags:'bilinear' interl:0
[Parsed_scale_2 @ 0x56286a307ac0] w:1280 h:720 flags:'bilinear' interl:0
Stream mapping:
  Stream #0:0 (h264) -> scale (graph 0)
  Stream #1:0 (png) -> scale (graph 0)
  overlay (graph 0) -> Stream #0:0 (libx264)
  Stream #0:1 -> #0:1 (aac (native) -> aac (native))
Press [q] to stop, [?] for help
[h264 @ 0x56286a318e40] Reinit context to 1920x1088, pix_fmt: yuv420p
[graph_1_in_0_1 @ 0x56286a35e940] tb:1/44100 samplefmt:fltp samplerate:44100 chlayout:0x3
[Parsed_scale_0 @ 0x56286a3884c0] w:1280 h:720 flags:'bilinear' interl:0
[Parsed_scale_2 @ 0x56286b325540] w:1280 h:720 flags:'bilinear' interl:0
[graph 0 input from stream 0:0 @ 0x56286b327a40] w:1920 h:1080 pixfmt:yuv420p tb:1/1000000 fr:30/1 sar:0/1 sws_param:flags=2
[graph 0 input from stream 1:0 @ 0x56286b328ac0] w:1920 h:1080 pixfmt:rgba tb:1/25 fr:25/1 sar:2835/2835 sws_param:flags=2
[Parsed_scale_0 @ 0x56286a3884c0] w:1920 h:1080 fmt:yuv420p sar:0/1 -> w:1280 h:720 fmt:yuv420p sar:0/1 flags:0x2
[Parsed_setsar_1 @ 0x56286b324b40] w:1280 h:720 sar:0/1 dar:16/9 -> sar:1/1 dar:16/9
[Parsed_scale_2 @ 0x56286b325540] w:1920 h:1080 fmt:rgba sar:2835/2835 -> w:1280 h:720 fmt:yuva420p sar:1/1 flags:0x2
[Parsed_setsar_3 @ 0x56286b326040] w:1280 h:720 sar:1/1 dar:16/9 -> sar:1/1 dar:16/9
[Parsed_overlay_4 @ 0x56286b326c40] main w:1280 h:720 fmt:yuv420p overlay w:1280 h:720 fmt:yuva420p
[Parsed_overlay_4 @ 0x56286b326c40] [framesync @ 0x56286b326d68] Selected 1/1000000 time base
[Parsed_overlay_4 @ 0x56286b326c40] [framesync @ 0x56286b326d68] Sync level 2
[libx264 @ 0x56286a2fcd80] using SAR=1/1
[libx264 @ 0x56286a2fcd80] using cpu capabilities: MMX2 SSE2Fast SSSE3 SSE4.2 AVX FMA3 BMI2 AVX2
[libx264 @ 0x56286a2fcd80] profile High, level 3.1
[libx264 @ 0x56286a2fcd80] 264 - core 155 r2917 0a84d98 - H.264/MPEG-4 AVC codec - Copyleft 2003-2018 - http://www.videolan.org/x264.html - options: cabac=1 ref=1 deblock=1:0:0 analyse=0x3:0x113 me=hex subme=2 psy=1 psy_rd=1.00:0.00 mixed_ref=0 me_range=16 chroma_me=1 trellis=0 8x8dct=1 cqm=0 deadzone=21,11 fast_pskip=1 chroma_qp_offset=0 threads=22 lookahead_threads=5 sliced_threads=0 nr=0 decimate=1 interlaced=0 bluray_compat=0 constrained_intra=0 bframes=3 b_pyramid=2 b_adapt=1 b_bias=0 direct=1 weightb=1 open_gop=0 weightp=1 keyint=250 keyint_min=25 scenecut=40 intra_refresh=0 rc_lookahead=10 rc=crf mbtree=1 crf=18.0 qcomp=0.60 qpmin=0 qpmax=69 qpstep=4 ip_ratio=1.40 aq=1:1.00
Output #0, mp4, to '/var/www/html/project/media/video/watermarks/lv_0_20240322175202.mp4':
  Metadata:
    major_brand     : isom
    minor_version   : 512
    compatible_brands: isomiso2avc1mp41
    Hw              : 1
    LvMetaInfo      : {"data":{"ad_type":"","adsTemplateId":"","appVersion":"11.4.0","businessComponentId":"","businessTemplateId":"","capabilityName":"","ccTtVid":"","commercial_params":{"commercial_audio_music_cnt":0,"commercial_sticker_cnt":0,"commercial_text_font_cnt":0,"c
    aigc_info       : {"aigc_label_type":0,"source_info":""}
    bitrate         : 12000000
    maxrate         : 30000000
    te_is_reencode  : 1
    encoder         : Lavf58.29.100
    Stream #0:0: Video: h264 (libx264), 1 reference frame (avc1 / 0x31637661), yuv420p, 1280x720 [SAR 1:1 DAR 16:9], q=-1--1, 30 fps, 15360 tbn, 30 tbc (default)
    Metadata:
      encoder         : Lavc58.54.100 libx264
    Side data:
      cpb: bitrate max/min/avg: 0/0/0 buffer size: 0 vbv_delay: -1
    Stream #0:1(und): Audio: aac (LC) (mp4a / 0x6134706D), 44100 Hz, stereo, fltp, delay 1024, 128 kb/s (default)
    Metadata:
      handler_name    : SoundHandler
      encoder         : Lavc58.54.100 aac
[Parsed_overlay_4 @ 0x56286b326c40] [framesync @ 0x56286b326d68] Sync level 0
No more output streams to write to, finishing.
frame= 2433 fps= 68 q=-1.0 Lsize=   80468kB time=00:01:21.10 bitrate=8127.4kbits/s speed=2.27x    
[AVIOContext @ 0x56286a2bb0c0] Statistics: 0 seeks, 71 writeouts
video:79065kB audio:1316kB subtitle:0kB other streams:0kB global headers:0kB muxing overhead: 0.107789%
Input file #0 (/var/www/html/project/media/video/original/lv_0_20240322175202.mp4):
  Input stream #0:0 (video): 2433 packets read (96403679 bytes); 2433 frames decoded; 
  Input stream #0:1 (audio): 3495 packets read (2003943 bytes); 3493 frames decoded (3576832 samples); 
  Total: 5928 packets (98407622 bytes) demuxed
Input file #1 (/var/www/html/project/static/images/templates/logo.png):
  Input stream #1:0 (video): 1 packets read (111578 bytes); 1 frames decoded; 
  Total: 1 packets (111578 bytes) demuxed
Output file #0 (/var/www/html/project/media/video/watermarks/lv_0_20240322175202.mp4):
  Output stream #0:0 (video): 2433 frames encoded; 2433 packets muxed (80962657 bytes); 
  Output stream #0:1 (audio): 3493 frames encoded (3576832 samples); 3494 packets muxed (1347385 bytes); 
  Total: 5927 packets (82310042 bytes) muxed
[AVIOContext @ 0x56286a2de600] Statistics: 2 seeks, 317 writeouts
[libx264 @ 0x56286a2fcd80] frame I:13    Avg QP:17.14  size:192456
[libx264 @ 0x56286a2fcd80] frame P:700   Avg QP:20.59  size: 70866
[libx264 @ 0x56286a2fcd80] frame B:1720  Avg QP:23.71  size: 16776
[libx264 @ 0x56286a2fcd80] consecutive B-frames:  4.2%  2.9%  4.9% 88.0%
[libx264 @ 0x56286a2fcd80] mb I  I16..4:  6.1% 11.2% 82.7%
[libx264 @ 0x56286a2fcd80] mb P  I16..4:  3.9%  7.3%  4.1%  P16..4: 40.5% 21.3% 20.1%  0.0%  0.0%    skip: 2.9%
[libx264 @ 0x56286a2fcd80] mb B  I16..4:  0.7%  0.7%  0.1%  B16..8: 22.5% 11.5%  3.2%  direct:21.2%  skip:40.1%  L0:25.7% L1:36.2% BI:38.1%
[libx264 @ 0x56286a2fcd80] 8x8 transform intra:44.2% inter:27.8%
[libx264 @ 0x56286a2fcd80] coded y,uvDC,uvAC intra: 64.4% 67.8% 28.9% inter: 33.1% 18.8% 1.7%
[libx264 @ 0x56286a2fcd80] i16 v,h,dc,p: 32% 32% 25% 11%
[libx264 @ 0x56286a2fcd80] i8 v,h,dc,ddl,ddr,vr,hd,vl,hu: 19% 27% 20%  5%  6%  5%  7%  5%  7%
[libx264 @ 0x56286a2fcd80] i4 v,h,dc,ddl,ddr,vr,hd,vl,hu: 20% 21% 13%  7%  8%  7%  9%  7%  9%
[libx264 @ 0x56286a2fcd80] i8c dc,h,v,p: 51% 24% 19%  6%
[libx264 @ 0x56286a2fcd80] Weighted P-Frames: Y:16.4% UV:3.0%
[libx264 @ 0x56286a2fcd80] kb/s:7986.38
[aac @ 0x56286a2f9e80] Qavg: 502.861
[AVIOContext @ 0x56286a2c4040] Statistics: 167297625 bytes read, 4195 seeks
[AVIOContext @ 0x56286a2c10c0] Statistics: 111578 bytes read, 0 seeks
